<?xml version="1.0" standalone="no"?><!DOCTYPE svg PUBLIC "-//W3C//DTD SVG 1.1//EN" "http://www.w3.org/Graphics/SVG/1.1/DTD/svg11.dtd"><svg t="1718430111902" class="icon" viewBox="0 0 1024 1024" version="1.1" xmlns="http://www.w3.org/2000/svg" p-id="13775" xmlns:xlink="http://www.w3.org/1999/xlink" width="200" height="200"><path d="M966.2 252.9c2.2-11.9-4.8-26-20.1-29.2-1.5-0.3-3-0.5-4.5-0.5-6-0.8-27.2-4-102.7-16.3-140.2-22.8-362.5 28.5-406.3 39.2L353.2 219c-1.2-0.4-2.4-0.7-3.7-1L86.8 171.5c-7.3-1.3-14.8 0.7-20.4 5.5-5.7 4.8-8.9 11.8-8.9 19.2v334.4c0 12.3 9 22.8 21.2 24.7l61.2 9.5 256.4 298.1c19.8 22.9 47.3 36.1 75.5 36.1h0.2c21.3 0 40.2-7.8 51.7-21.3 10.2-11.9 15.1-28.7 14-47h2.4c22.1-0.7 41.9-10 54.1-25.4 7.1-8.9 11.4-19.7 13.1-31.3 6.3 1.2 12.7 1.8 19.2 1.8 25.1-0.2 47.7-10.3 62.2-27.5 10.9-12.9 16.7-29.3 17.5-46.6 7.5 1.2 15.1 1.6 22.7 0.9 21.4-1.8 39.7-11.2 50.3-25.9 9.4-13 12.9-30.4 10-49.1-0.8-4.8-1.9-9.6-3.4-14.4 3.3-0.6 6.7-1.2 10-1.8 13.5-2.4 27.5-4.9 39.4-7.5L937 623.7c7.3 1.4 14.9-0.5 20.7-5.3 5.8-4.8 9.1-11.8 9.1-19.3l-0.8-345.5c0.1-0.2 0.1-0.5 0.2-0.7zM738.4 647.3c-1.3 1.8-6 4.7-13.9 5.3-6.5 0.5-23.5 0-40.1-16.3-9.2-9.1-24-9.7-33.8-1.2-9.9 8.5-11.6 23.1-4 33.6 12.5 17.4 11.7 37.7 3.6 47.3-5 6-14.1 9.6-24.4 9.7-13.9 0.1-27.4-6.1-37-17.2-8.8-10.1-24-11.4-34.5-3s-12.4 23.6-4.4 34.4c10.1 13.7 9.4 28.7 4.9 34.3-2.9 3.7-9.4 6.2-16.5 6.5-10.2 0.3-20.3-3.8-28.2-11.4-1-1-2-2.1-3-3.1-9.6-9.6-25.1-9.8-34.9-0.4-9.8 9.3-10.4 24.8-1.3 34.9 1 1.2 2.1 2.3 3.2 3.4 9.4 10.5 12.2 20.8 13.1 26.3 1.4 8.9-0.8 13.8-1.6 14.8-0.9 1-5.2 3.8-13.9 3.9h-0.1c-6.5 0-23-1.8-37.6-18.7L171.6 525.1c-3.9-4.5-9.2-7.5-15.1-8.4l-49.1-7.6V225.9L338.9 267l39.8 13.6c-2.6 2.1-5.3 4.4-8 6.7-34.3 29.5-56.9 57.1-67.1 82.1-9.6 23.6-3.1 39.3 4 48.3 16.4 20.7 48.8 21.6 78.3 19.8 29.6-1.8 66-7.6 104.5-13.8 4.8-0.8 9.7-1.5 14.5-2.3 73-11.6 92.9 5.4 95 7.5l0.6 0.9L726.8 609c0.5 0.7 1 1.4 1.6 2.1 12.4 15.7 13.1 31.9 10 36.2z m100.9-93.6c-1.6-0.3-3.2-0.5-4.8-0.5-1.9 0-3.7 0.2-5.5 0.6-11.8 2.7-27.3 5.5-42.4 8.2-9.4 1.7-19.1 3.4-28.1 5.2L641.9 401.6c-3.5-5.5-12.8-16.9-33.7-25-27.1-10.5-64.5-12-111.1-4.6-4.9 0.8-9.8 1.6-14.6 2.3-34.2 5.5-66.4 10.6-92.6 12.8-22.1 1.8-33.7 0.8-39.5-0.3 14.9-34.1 67.8-75.4 91.3-91.5 33.1-8.1 256.6-60.6 389.1-39.1 38.4 6.2 67 10.8 85.2 13.6l0.4 298.8-77.1-14.9z" fill="#424242" p-id="13776"></path></svg>